<svg width="119" height="25" viewBox="0 0 119 25" fill="none" xmlns="http://www.w3.org/2000/svg">
<path d="M22.5245 15.4765H30.024V18.641H18.959V1.36328H22.5245V15.4765Z" fill="#020210"></path>
<path d="M32.7789 0.762695C33.3463 0.762695 33.8216 0.962882 34.2049 1.36326C34.6037 1.74823 34.803 2.22561 34.803 2.79537C34.803 3.34973 34.6037 3.8271 34.2049 4.22747C33.8216 4.61245 33.3463 4.80494 32.7789 4.80494C32.2114 4.80494 31.7358 4.61245 31.3525 4.22747C30.9692 3.8271 30.7773 3.34973 30.7773 2.79537C30.7773 2.24101 30.9767 1.76363 31.3755 1.36326C31.7742 0.962882 32.2421 0.762695 32.7789 0.762695ZM34.4579 18.641H31.0995V6.69899H34.4579V18.641Z" fill="#020210"></path>
<path d="M41.4995 6.46875C43.1252 6.46875 44.306 6.96152 45.0421 7.94703V6.69971H48.1937V19.0806C48.1937 20.8053 47.6492 22.1834 46.5602 23.2152C45.4713 24.2469 44.0145 24.7628 42.1897 24.7628C40.3953 24.7628 38.9845 24.347 37.9569 23.5155C36.9293 22.6993 36.3008 21.5829 36.0707 20.1662L39.4062 20.0507C39.4828 20.6359 39.7588 21.0901 40.2344 21.4135C40.7097 21.7369 41.3231 21.8986 42.0747 21.8986C42.9333 21.8986 43.6083 21.6753 44.0989 21.2287C44.6049 20.7976 44.8579 20.1662 44.8579 19.3346V17.6254C44.0759 18.4723 42.9563 18.8958 41.4995 18.8958C39.8127 18.8958 38.4322 18.326 37.3588 17.1865C36.3008 16.0469 35.7715 14.5455 35.7715 12.6823C35.7715 10.819 36.3008 9.31757 37.3588 8.17804C38.4322 7.03854 39.8127 6.46875 41.4995 6.46875ZM42.0517 9.3561C41.1928 9.3561 40.4951 9.64865 39.9581 10.2338C39.4369 10.819 39.1761 11.6351 39.1761 12.6823C39.1761 13.7294 39.4369 14.5455 39.9581 15.1307C40.4951 15.7158 41.1928 16.0085 42.0517 16.0085C42.8951 16.0085 43.5699 15.739 44.0759 15.2C44.5974 14.6456 44.8579 13.8988 44.8579 12.9594V12.4051C44.8579 11.4657 44.5974 10.7266 44.0759 10.1876C43.5699 9.63325 42.8951 9.3561 42.0517 9.3561Z" fill="#020210"></path>
<path d="M53.3093 0.762695V7.78466C53.9537 6.95311 54.9583 6.53734 56.3232 6.53734C57.7186 6.53734 58.8382 6.96851 59.6817 7.83086C60.5406 8.6932 60.97 9.88663 60.97 11.4111V18.7103H57.6113V12.0579C57.6113 11.3033 57.4194 10.7181 57.0364 10.3024C56.6683 9.88663 56.1623 9.67871 55.518 9.67871C54.8585 9.67871 54.3217 9.902 53.9077 10.3486C53.509 10.7798 53.3093 11.3572 53.3093 12.081V18.7103H49.9512V0.762695H53.3093Z" fill="#020210"></path>
<path d="M66.8644 9.67862L66.8414 14.1135C66.8414 14.7295 67.0104 15.1838 67.3477 15.4764C67.6851 15.7689 68.1143 15.9153 68.6355 15.9153C68.8968 15.9153 69.2417 15.8767 69.6711 15.7998V18.8026C69.0268 18.895 68.4057 18.9411 67.8079 18.9411C66.4582 18.9411 65.3924 18.6101 64.6101 17.9479C63.8433 17.2704 63.4675 16.2617 63.483 14.922L63.5062 9.67862H61.3438V6.76821H63.5292L63.5518 2.81836H66.9106L66.8876 6.76821H69.6711V9.67862H66.8644Z" fill="#020210"></path>
<path d="M82.4454 18.7103H79.2938V17.4861C78.9564 17.9172 78.4811 18.2714 77.8675 18.5486C77.2541 18.8258 76.5487 18.9643 75.7514 18.9643C74.0646 18.9643 72.6842 18.3946 71.6104 17.2551C70.5524 16.1155 70.0234 14.6141 70.0234 12.7508C70.0234 10.8876 70.5524 9.38616 71.6104 8.24663C72.6842 7.1071 74.0646 6.53734 75.7514 6.53734C77.2541 6.53734 78.374 6.96081 79.1096 7.80776V0.762695H82.4454V18.7103ZM76.3034 9.42466C75.4445 9.42466 74.7468 9.71724 74.2101 10.3024C73.6885 10.8876 73.4281 11.7037 73.4281 12.7508C73.4281 13.798 73.6885 14.6141 74.2101 15.1993C74.7468 15.769 75.4445 16.0539 76.3034 16.0539C77.1468 16.0539 77.8218 15.7844 78.3276 15.2455C78.8491 14.7065 79.1096 13.9597 79.1096 13.0049V12.4737C79.1096 11.5343 78.8491 10.7952 78.3276 10.2562C77.8218 9.70184 77.1468 9.42466 76.3034 9.42466Z" fill="#020210"></path>
<path d="M89.0523 6.53711C90.6625 6.53711 91.8897 6.94521 92.7329 7.76133C93.5766 8.57748 93.9983 9.77091 93.9983 11.3416V18.71H90.7546V17.7399C89.9726 18.5561 88.9602 18.9641 87.718 18.9641C86.4913 18.9641 85.5251 18.6639 84.8197 18.0633C84.1146 17.4473 83.7617 16.5696 83.7617 15.4301C83.7617 13.151 85.349 11.9421 88.5233 11.8036L90.6398 11.6881V11.2261C90.6398 9.99419 90.1258 9.37823 89.0984 9.37823C88.5617 9.37823 88.1477 9.5322 87.8563 9.84018C87.5803 10.1482 87.442 10.5178 87.442 10.9489L84.0836 10.8103C84.0836 9.70161 84.5437 8.71605 85.464 7.8537C86.3993 6.97598 87.5955 6.53711 89.0523 6.53711ZM90.6398 13.9055L88.8454 14.021C87.6953 14.0672 87.1202 14.483 87.1202 15.2684C87.1202 15.9921 87.5803 16.354 88.5006 16.354C89.1294 16.354 89.6429 16.1846 90.0414 15.8458C90.4404 15.507 90.6398 15.0297 90.6398 14.4137V13.9055Z" fill="#020210"></path>
<path d="M99.9006 6.53711C101.357 6.53711 102.492 6.89131 103.305 7.59964C104.133 8.308 104.601 9.23964 104.708 10.3945L101.373 10.5794C101.327 9.60922 100.821 9.12415 99.8544 9.12415C98.9496 9.12415 98.4972 9.4629 98.4972 10.1405C98.4972 10.2329 98.5049 10.3176 98.5204 10.3945C98.5356 10.4716 98.5666 10.5408 98.6122 10.6024C98.6736 10.664 98.7275 10.7179 98.7732 10.7641C98.8196 10.8103 98.8962 10.8565 99.0035 10.9027C99.1111 10.9489 99.1954 10.9874 99.2565 11.0182C99.3331 11.049 99.4404 11.0875 99.5784 11.1337C99.7322 11.1799 99.8544 11.2184 99.9465 11.2492C100.039 11.2646 100.177 11.2954 100.361 11.3416C100.56 11.3878 100.714 11.4263 100.821 11.4571C102.186 11.8113 103.198 12.2425 103.857 12.7506C104.532 13.2434 104.869 13.9902 104.869 14.9912C104.869 16.2231 104.44 17.1932 103.581 17.9016C102.722 18.61 101.526 18.9641 99.9927 18.9641C98.4745 18.9641 97.2783 18.633 96.4041 17.9709C95.545 17.2933 95.0544 16.3309 94.9316 15.0835L98.2904 14.8988C98.3363 15.8843 98.9114 16.3771 100.015 16.3771C100.475 16.3771 100.836 16.2847 101.097 16.0999C101.373 15.8997 101.511 15.6302 101.511 15.2914C101.511 14.9373 101.365 14.6755 101.074 14.5061C100.798 14.3367 100.222 14.1442 99.3486 13.9286C98.7353 13.7747 98.2519 13.6438 97.8993 13.536C97.562 13.4282 97.1862 13.2819 96.7722 13.0971C96.3732 12.8969 96.0745 12.6813 95.8751 12.4503C95.6755 12.2193 95.4993 11.9268 95.3459 11.5726C95.2076 11.203 95.1388 10.7795 95.1388 10.3022C95.1388 9.14722 95.5605 8.23098 96.4041 7.55345C97.2473 6.87586 98.4129 6.53711 99.9006 6.53711Z" fill="#020210"></path>
<path d="M109.444 0.762695V7.78466C110.089 6.95311 111.093 6.53734 112.458 6.53734C113.854 6.53734 114.973 6.96851 115.816 7.83086C116.676 8.6932 117.105 9.88663 117.105 11.4111V18.7103H113.746V12.0579C113.746 11.3033 113.554 10.7181 113.171 10.3024C112.803 9.88663 112.297 9.67871 111.653 9.67871C110.993 9.67871 110.457 9.902 110.043 10.3486C109.644 10.7798 109.444 11.3572 109.444 12.081V18.7103H106.086V0.762695H109.444Z" fill="#020210"></path>
<path d="M8.97837 6.86035H13.2499C13.9537 6.86035 14.3912 7.6166 14.0374 8.21477L7.34156 19.6524C7.17415 19.9383 6.86978 20.1039 6.55022 20.1039C5.96815 20.1039 5.52683 19.5659 5.66378 18.994L7.41768 11.6762L8.97837 6.86035Z" fill="#020210"></path>
<path d="M10.4455 2.43481L8.9332 7.30889L7.36164 12.1154H2.81435C2.25887 12.1154 1.82981 11.6348 1.9026 11.094L3.12848 2.08184C3.18978 1.63498 3.58053 1.30078 4.04024 1.30078H9.55671C10.1582 1.30078 10.5987 1.86404 10.4455 2.43481Z" fill="#020210"></path>
</svg>
